<svg width="147" height="27" viewBox="0 0 147 27" fill="none" xmlns="http://www.w3.org/2000/svg">
<g clip-path="url(#clip0_118_217)">
<path d="M18.7393 0H13.5958L0 26.628H5.79732L8.5358 20.6625H15.7199L16.1193 26.628H21.9166L18.7393 0ZM10.4668 16.4613L14.8071 7.00989L15.439 16.4613H10.4668Z" fill="white"/>
<path d="M46.5103 5.09767C45.8301 3.52402 44.7987 2.27941 43.4207 1.3686C42.0383 0.45302 40.2785 0 38.1369 0H29.4036L28.3415 5.41717L34.0292 5.39809H37.1363C38.1281 5.39809 38.9619 5.64129 39.6378 6.12769C40.318 6.61886 40.8358 7.30078 41.1913 8.17344C41.5512 9.05087 41.7267 10.0761 41.7267 11.2492C41.7267 12.5749 41.538 13.8386 41.1562 15.0355C40.7788 16.2372 40.2478 17.3054 39.5719 18.2448C38.8917 19.1794 38.0886 19.9138 37.1538 20.4384C36.2234 20.9629 35.1702 21.2252 33.9984 21.2252H25.252L24.1943 26.628H32.9276C35.021 26.628 36.9607 26.2179 38.7425 25.4073C40.5243 24.5966 42.0734 23.4617 43.3856 22.012C44.6978 20.5623 45.716 18.8456 46.4401 16.8571C47.1642 14.8686 47.5284 12.6989 47.5284 10.3479C47.5284 8.42618 47.1861 6.67132 46.5103 5.09767Z" fill="white"/>
<path d="M76.8441 3.71C76.3965 2.61321 75.747 1.71671 74.8956 1.03002C74.0442 0.343342 73.0085 0 71.7885 0H61.607L56.3977 26.628H60.2948L62.0897 17.3626H67.2331L70.4105 26.628H74.7946L71.3408 16.4995C72.2142 16.199 73.0261 15.7365 73.7765 15.1118C74.5226 14.4871 75.1765 13.748 75.7426 12.8992C76.3043 12.0503 76.7432 11.1348 77.0548 10.162C77.362 9.18439 77.52 8.19728 77.52 7.20064C77.52 5.9751 77.2961 4.81155 76.8441 3.71ZM73.1709 9.88061C72.9383 10.5911 72.6047 11.2301 72.1703 11.7928C71.7314 12.3555 71.2487 12.8038 70.722 13.1424C70.191 13.4809 69.6381 13.6478 69.0632 13.6478H62.8182L64.7843 3.71H70.823C71.3277 3.71 71.7841 3.88644 72.1878 4.23455C72.5916 4.58743 72.912 5.05475 73.1533 5.64129C73.3947 6.22784 73.5176 6.90021 73.5176 7.64889C73.5176 8.39756 73.3991 9.17008 73.1709 9.88061Z" fill="#0783A0"/>
<path d="M95.535 10.9488C95.0084 9.70893 94.1965 8.71706 93.1037 7.97792C92.011 7.23401 90.6242 6.86206 88.9434 6.86206C87.403 6.86206 85.9811 7.17679 84.6821 7.81102C83.383 8.44048 82.2376 9.3036 81.2458 10.3908C80.2584 11.4829 79.4947 12.7513 78.9506 14.201C78.4108 15.6507 78.1431 17.1814 78.1431 18.7884C78.1431 20.2762 78.402 21.6401 78.9155 22.8751C79.4333 24.115 80.232 25.1116 81.316 25.8698C82.3956 26.6233 83.7912 27 85.4939 27C87.0124 27 88.4299 26.6853 89.7553 26.0558C91.0762 25.4216 92.2304 24.5489 93.2091 23.4331C94.1833 22.3172 94.9513 21.044 95.5043 19.6086C96.0529 18.1685 96.3294 16.6616 96.3294 15.0736C96.3294 13.4857 96.066 12.1886 95.535 10.9488ZM91.8793 18.7598C91.5326 19.7088 91.0587 20.5433 90.4618 21.2586C89.865 21.9739 89.1847 22.5223 88.4255 22.9037C87.6663 23.2852 86.8851 23.476 86.0776 23.476C85.2262 23.476 84.4977 23.2519 83.8877 22.8084C83.2777 22.3649 82.8169 21.7497 82.5053 20.9629C82.1981 20.1713 82.0401 19.2748 82.0401 18.2639C82.0401 17.1528 82.2201 16.118 82.5755 15.1547C82.931 14.1962 83.4094 13.3569 84.0062 12.6416C84.6075 11.9263 85.2789 11.3732 86.0294 10.9774C86.7754 10.5816 87.5522 10.3861 88.3553 10.3861C89.233 10.3861 89.9659 10.615 90.5671 11.0728C91.164 11.5258 91.6204 12.1457 91.932 12.9182C92.2392 13.6955 92.3972 14.6016 92.3972 15.6363C92.3972 16.7713 92.2216 17.8108 91.8793 18.7598Z" fill="#0783A0"/>
<path d="M111.725 7.16248C111.378 8.5263 110.957 9.8806 110.465 11.2206C109.969 12.5558 109.416 13.8815 108.806 15.1833C108.196 16.4852 107.52 17.8013 106.77 19.127C106.024 20.4527 105.225 21.8117 104.374 23.1994L102.75 7.16248H98.8135L101.473 26.628H105.475C107.823 23.3758 109.838 20.1236 111.518 16.8762C113.195 13.624 114.45 10.3861 115.279 7.16248H111.725Z" fill="#0783A0"/>
<path d="M120.317 18.2448C121.125 18.2829 121.849 18.302 122.494 18.302C125.922 18.302 128.471 17.7822 130.139 16.7379C131.807 15.6983 132.627 14.1771 132.605 12.1743C132.605 11.006 132.351 10.038 131.846 9.25591C131.341 8.47863 130.622 7.88255 129.691 7.47245C128.757 7.06711 127.659 6.86206 126.391 6.86206C124.807 6.86206 123.341 7.17679 121.994 7.81102C120.646 8.44048 119.466 9.31791 118.457 10.4481C117.443 11.5735 116.662 12.8419 116.109 14.2582C115.556 15.6697 115.266 17.1671 115.244 18.7503C115.266 20.3382 115.56 21.7497 116.126 22.9896C116.688 24.2247 117.517 25.207 118.61 25.9223C119.703 26.6424 120.998 27 122.494 27C123.644 27 124.772 26.7806 125.873 26.3467C126.979 25.908 127.997 25.3071 128.932 24.5442C129.863 23.7812 130.617 22.9276 131.192 21.9739L128.155 20.9629C127.646 21.888 126.935 22.6176 126.014 23.1565C125.092 23.6953 124.14 23.9624 123.148 23.9624C122.226 23.9624 121.463 23.7287 120.853 23.2614C120.243 22.7893 119.795 22.1741 119.51 21.4112C119.22 20.6434 119.075 19.7946 119.075 18.8552C119.071 18.6263 119.075 18.3926 119.089 18.1685C119.523 18.2019 119.931 18.2257 120.317 18.2448ZM120.993 12.6178C121.599 11.769 122.327 11.1014 123.166 10.6197C124.008 10.1381 124.943 9.89968 125.979 9.89968C126.624 9.89968 127.177 9.99028 127.637 10.1763C128.098 10.3575 128.458 10.6293 128.721 10.9822C128.989 11.3398 129.121 11.7976 129.121 12.3651C129.095 12.9993 128.879 13.5668 128.463 14.0532C128.05 14.5443 127.37 14.9258 126.426 15.1929C125.483 15.4647 124.197 15.5982 122.564 15.5982C121.941 15.5982 121.274 15.5744 120.559 15.5267C120.252 15.5028 119.922 15.4837 119.576 15.4599C119.918 14.406 120.392 13.4571 120.993 12.6178Z" fill="#0783A0"/>
<path d="M146.653 7.06717C146.517 7.05286 146.333 7.0481 146.1 7.0481C145.021 7.0481 143.928 7.4582 142.822 8.2784C141.716 9.09861 140.738 10.162 139.886 11.4782L140.751 7.16254H137.196L133.4 26.6281H137.196L139.509 14.7161C140.22 13.4619 141.19 12.4891 142.41 11.7977C143.63 11.1062 144.929 10.7486 146.307 10.7247L147 7.12439C146.908 7.10055 146.794 7.08148 146.653 7.06717Z" fill="#0783A0"/>
<path d="M35.5036 16.2658H23.2199C22.7372 16.2658 22.3773 15.8127 22.4782 15.3359L23.3208 11.2682C23.3955 10.9106 23.7027 10.6531 24.0625 10.6531H36.3462C36.8289 10.6531 37.1888 11.1061 37.0878 11.583L36.2452 15.6506C36.1706 16.0083 35.8634 16.2658 35.5036 16.2658Z" fill="#0783A0"/>
<path d="M33.2567 6.8573C33.4849 6.8573 33.6561 7.08619 33.6078 7.32939L32.5984 12.47L31.159 19.8184C31.1107 20.0521 30.922 20.219 30.7026 20.219H25.9804C25.682 20.219 25.4626 19.9234 25.524 19.6086L26.9196 12.47L27.9553 7.16726C27.9904 6.98605 28.1352 6.8573 28.3064 6.8573H33.2567Z" fill="#0783A0"/>
</g>
<defs>
<clipPath id="clip0_118_217">
<rect width="147" height="27" fill="white"/>
</clipPath>
</defs>
</svg>
