<svg width="27" height="24" viewBox="0 0 27 24" fill="none" xmlns="http://www.w3.org/2000/svg">
<path d="M22.8464 24H4.15358C1.86278 24 0 22.1361 0 19.8438V4.15619C0 1.86394 1.86278 0 4.15358 0H22.8447C25.1355 0 26.9983 1.86394 26.9983 4.15619V19.8438C26.9983 22.1361 25.1355 24 22.8447 24H22.8464ZM4.15358 1.54187C2.71198 1.54187 1.5409 2.7154 1.5409 4.15619V19.8438C1.5409 21.2863 2.7137 22.4581 4.15358 22.4581H22.8447C24.2863 22.4581 25.4574 21.2846 25.4574 19.8438V4.15619C25.4574 2.71368 24.2846 1.54187 22.8447 1.54187H4.15358Z" fill="white"/>
<path d="M8.8327 2.1792V21.8209H4.55584C3.17246 21.8209 2.05273 20.6336 2.05273 19.1688V4.83121C2.05273 3.36644 3.17246 2.1792 4.55584 2.1792H8.8327Z" fill="white"/>
</svg>
